<?xml version="1.0" encoding="UTF-8"?>
<svg version="1.1" viewBox="0 0 1044 956" width="1044" height="956"
    xmlns="http://www.w3.org/2000/svg">
    <path transform="translate(517,17)"
        d="m0 0h39l29 2 36 5 25 5 25 6 22 6 22 8 25 10 17 6 16 8 19 10 11 7 16 12 12 11 11 9 12 11 17 16 7 6 7 8 8 8 11 14 12 16 11 17 12 21 13 25 9 25 12 36 7 28 3 19 4 44 2 36v64l-3 30-5 33-6 24-8 26-11 31-8 18-16 32-12 19-13 19-9 12-22 26-32 32-11 9-10 9-19 14-14 10-17 10-10 6-16 8-26 12-31 12-22 8-40 10-31 6-23 3-11 1h-58l-30-3-28-5-29-7-19-5-17-6-28-12-18-8-20-12-15-10-13-10-13-11-8-7-31-31-18-22-14-18-13-18-10-15-9-15-13-23-17-34-9-24-13-36-8-28-3-16-8-66-1-11v-35l3-31 6-42 5-24 7-27 12-36 8-21 9-19 10-19 11-19 8-12 12-16 9-11 28-28 10-8 16-13 24-18 20-14 17-11 17-10 25-13 25-11 27-9 30-8 24-5 26-4zm-31 19-22 3-32 8-36 12-26 10-26 12-23 14-28 20-19 14-11 9-16 13-11 9-15 14-9 10-9 11-10 12-16 22-11 19-8 16-10 26-9 30-6 25-8 45-4 27-2 18-1 16v41l4 36 4 27 9 40 8 24 12 30 9 22 20 38 14 22 12 17 13 18 11 14 9 10 9 11 12 13 7 8 21 21 14 11 15 11 14 8 20 11 21 9 40 13 34 8 26 4 12 1h70l26-2 32-5 25-6 26-8 21-7 27-12 33-16 24-14 15-10 14-10 13-11 14-12 18-18 6-5 7-8 10-11 8-10 13-16 10-14 10-15 14-24 10-18 8-20 7-18 7-21 6-29 6-38 4-43 1-17v-48l-2-30-5-38-8-37-8-24-11-24h-2l1 10 5 19 10 30 5 22 6 35 3 30v45l-2 29-5 38-4 29-7 30-10 32-7 19-12 26-10 18-9 16-19 28-14 19-12 14-9 10-7 8-8 7-9 9-14 11-15 12-20 13-14 8-18 10-29 14-32 13-20 7-32 8-26 5-25 3-36 2h-18l-23-1-25-3-42-8-28-6-24-8-36-16-18-10-19-13-14-11-13-12-18-18-9-11-9-10-11-14-13-16-12-16-11-17-12-21-14-28-12-29-16-51-7-30-4-28-4-42-1-15v-34l3-33 4-32 6-29 9-31 12-35 11-25 12-24 11-16 11-15 9-10 11-14 27-27 11-9 17-13 23-16 17-11 22-12 25-11 28-10 15-5 35-10 21-5 39-6 11-1h32l28 3 34 6 35 8 30 7 36 12 26 10 24 11 22 12 12 8 17 12 11 9 10 9 12 11 7 8 11 12 11 14 12 15 18 27 9 16 4 6 11 8h2l-1-5-13-24-12-19-12-17-13-16-11-13-12-12-4-5h-2v-2l-8-7-13-12-14-11-16-12-15-9-18-10-16-8-17-7-30-11-52-15-30-7-29-5-24-2zm32 23-38 3-25 5-23 6-29 9-25 10-26 12-20 12-17 10-16 11-21 16-11 9-8 8-11 9-9 10-9 11-7 8-13 18-10 15-13 22-9 20-10 26-7 21-7 30-6 35-3 26-1 14v38l4 47 5 35 7 36 9 31 14 37 8 16 12 23 14 21 12 16 12 15 9 11 9 10 7 9 12 13 23 23 11 9 13 10 20 12 44 21 37 12 25 6 24 4 21 2h66l32-3 25-4 24-6 38-12 40-18 16-8 21-11 26-16 13-9 18-14 12-11 10-10 7-8 12-15 12-16 12-19 12-21 15-29 18-42 8-21 7-30 5-28 4-42 2-31v-48l-4-33-7-35-8-30-8-21-11-25-6-14-18-27-12-16-11-14-13-14-7-8-5-6h-2v-2l-8-7-8-8-11-9-17-13-30-19-14-8-30-13-16-7-19-7-20-6-25-7-34-7-23-3-29-2z"
        fill="#22140D" />
    <path transform="translate(666,310)"
        d="m0 0h30l21 3 15 5 11 6 11 8 8 9 8 19 3 14 2 21v45l-2 4-19 1h-29l-18-1-4-2-1-63-3-7-8-6-7-2h-11l-8 3-6 5-2 6v105l1 108 2 10 4 2 5 3 6 1h16l10-5 3-4 1-5v-41l2-4 7-1h56l6 2v28l-2 23-3 13-4 10-7 11-10 10-12 8-14 5-15 3-25 2-22-1-17-3-16-5-14-6-11-9-8-10-6-13-4-15-1-15v-53l1-154 2-17 4-13 6-12 8-7 16-9 13-5 12-3z"
        fill="#21120B" />
    <path transform="translate(504,306)"
        d="m0 0h22l1 1v73l-3 2-63-1v68l74 1 1 1v58h-72v138l-1 3-34 1h-37l-6-1v-343z" fill="#21130C" />
    <path transform="translate(624,212)"
        d="m0 0 4 1 5 11 3 13-1 12-4 10-8 10-8 9-15 8-14 6-21 5h-21l-20-4-17-5-25-11-15-10v-1l14 1 18 2h12l17-2 24-6 23-7 19-10 9-8 9-7 7-9 3-6z"
        fill="#22130C" />
    <path transform="translate(476,180)"
        d="m0 0 13 1 24 6 11 6 10 9-1-3-1-5 9 2 10 6 11 10 4 8v14l-4 6-5 4-16 7h-2l1-7 2-8v-19l-2-7-2-1v23l-3 10-6 9-5 4-3 1 1-9 4-12 2-12v-16l-3-6-4-5-14-7-15-4-16-3zm77 46-2 7-4 9v3h3l4-7 1-6-1-6z"
        fill="#261811" />
    <path transform="translate(365,60)"
        d="m0 0h2l-1 3-9 2-3-1v2l-7 1-3 4h6l-1 3-7 4h-4v2h-2v2l-4 2-1-1-2 3h-2l-1 4-10 6-3 3-9 5h-2l-2 4-9 5-9 6-7 6-8 6-4 2-5 4-3 1v2l-9 4-5 5-3 1 2-5h-6l2-3h4l1-2 4-3 2 2 4-3-4-2 5-5h2l1-3h2v-2h2l1-3 6-4 1-2h3v-3l5-1 1-3h3v-3l5-2 2-3 4-1 2-3 3-2v-2l20-13 14-8 4 2 2-4 11-4 9-3 2-1z"
        fill="#100903" />
    <path transform="translate(297,244)"
        d="m0 0 4 1 1 1 1 8 3 1 21 1-1 4-7 2-19 1 4 3 2 7 6-6 7-2-2 5-10 10-8 11-6 4-7 1-3-4v-2h-4l-1 6-4 5h-2l-4-14-2-6-1-7v-16l3-6 6-5 10-1 4 5 1 4 2 1 3-10zm-20 4-6 5-2 4 1 14 3 10 3 5 3-1 6-13-2-3-8 3 4-6 4-4 1-7-3-6zm16 16-2 11-3 6v5l1 1h5l9-9-1-3h-7l1-11z"
        fill="#2E1F19" />
    <path transform="translate(224,460)"
        d="m0 0 7 1 17 9 14 7 6 5v7l-6 5-11 4-19 4-8 5-3-1-3-7-2-4 1-5 4-3 13 1h8l3 1-5-5-8-7-10-11 1-5z"
        fill="#24150E" />
    <path transform="translate(334,709)"
        d="m0 0 5 2 13 10 10 6 24 16 36 19 16 7 36 12 29 10v2h-8l-19-4-27-9-32-12-21-11-21-12-14-9-9-7-14-12-4-5z"
        fill="#251710" />
    <path transform="translate(806,650)"
        d="m0 0h2l-1 6-10 14-9 11-23 23-15 11-20 15-16 11-11 6-5 1 1-4 15-12 15-11 18-13 11-9 14-12 12-11 2-3h2l2-4 11-13z"
        fill="#251710" />
    <path transform="translate(244,669)"
        d="m0 0 6 4 7 8 26 26 7 8 13 13 8 7 11 9 10 9 5 4-1 4-5-1-17-13-10-8-15-14-15-16-7-8-9-10-11-14-3-5z"
        fill="#25160F" />
    <path transform="translate(824,669)"
        d="m0 0h2l-1 4-7 9-7 11-9 11-6 7-8 7-12 12-10 7-22 15h-4l2-4 14-12 8-8 8-7 10-10 8-7 15-16 7-8 9-9z"
        fill="#271811" />
    <path transform="translate(774,218)"
        d="m0 0 10 6 5 4 5 6 6 3 3-1-1-7 9 1 8 4v6l-4 4-1 3 14 3 5 5 2 5v9l-3 12-3 4v-26l-3-5h-5l-3 11h-4l-9-6-1-2 4 1 3 2h3l-3-9-13-12-14-6-6-5-1-3-3-5zm31 20 1 3h3l-1-3z"
        fill="#2B1D16" />
    <path transform="translate(815,795)"
        d="m0 0 3 1 1 5-4 6-5 1v2l-5 4-8 1-10 9-5 4-1 2h-3v2l-11 4-6 4-8 2-3 3-12 5h-2v2l-4-1 1-4 18-9 6-5 9-6 7-4 8-4 10-6 6-4 4-4 4-2 5-5z"
        fill="#100903" />
    <path transform="translate(885,452)" d="m0 0h5l1 5-7 11-4 5-12 9-3 5-3-1-3-6v-9l6-8 7-6 5-3z"
        fill="#24150E" />
    <path transform="translate(890,471)" d="m0 0 4 1 3 5v8l-4 6-8 7-2 1h-6l-9-7-3-4 16-10z"
        fill="#23140D" />
    <path transform="translate(507,209)"
        d="m0 0 6 1 7 8 1 5v8l-3 11-4 8-5 4-6 2h-5v-3l5-5 5-11 1-4v-15z" fill="#2B1D16" />
    <path transform="translate(498,210)"
        d="m0 0h3l3 7v15l-3 10-7 11h-3l1-8 4-13v-5l-9 8-7 3-1-4 10-12z" fill="#2A1B14" />
    <path transform="translate(780,257)"
        d="m0 0h14l9 6 7 6 5 10v9l-3 7h-3l-1-4 2-4v-6l-10-12-4-2h-8l-6 1-5-2-2-5 2-3z"
        fill="#251710" />
    <path transform="translate(457,121)"
        d="m0 0 6 1 5 4 2 5v7l-3 6-7 3h-8l-5-5-1-2v-10l3-6 3-2zm1 7-6 3-1 7 2 2 7-1 3-2 1-5-2-3z"
        fill="#281A13" />
    <path transform="translate(508,807)"
        d="m0 0h6l6 5 3 6v9l-5 6-9 2-5-2-4-6-1-9 2-6 4-4zm0 7-2 5v6l2 4 4 1 4-3 1-9-3-4z"
        fill="#271912" />
    <path transform="translate(746,177)"
        d="m0 0h9l5 4 3 4 1 10-2 5-4 3-5 1-7-3-5-5-1-7 3-9zm3 7-2 3v8l4 3 5-2 1-5-3-7z"
        fill="#271811" />
    <path transform="translate(622,119)"
        d="m0 0h13l5 3 1 5-1 3-7 3-1 1h-8l-1 5 5 2 6 1v3l-2 1h-9l-7-4-1-5 5-16zm6 6-2 2v5l7-2-2-5z"
        fill="#2C1E18" />
    <path transform="translate(380,157)"
        d="m0 0 5 1-1 5h-8l-10 9-3 6v5l4 3 12 6-1 6-4 4-4-2-2-7-5-3-6-7-1-10 4-6 17-9z"
        fill="#2D1E18" />
    <path transform="translate(651,775)"
        d="m0 0h3v2l-19 7-26 8-22 4h-7l-7-2h-21l1-2 34-2 19-3 31-8z" fill="#372A23" />
    <path transform="translate(417,135)"
        d="m0 0 6 2 5 12-2 6-5 5-5 2-8-1-5-5-1-3v-7l3-6 6-4zm-1 7-6 3-2 3 1 5 4 3 6-1 5-6-1-6z"
        fill="#2B1D16" />
    <path transform="translate(548,805)"
        d="m0 0 2 2 1 15 5 5h5l4-9 2-7h4v17l-2 6h-19l-4-6-1-5 1-14z" fill="#2C1E18" />
    <path transform="translate(533,110)" d="m0 0h11l2 17 1 7-4 1-14-1 1-9 2-4zm3 14v3h2l-1-3z"
        fill="#261811" />
    <path transform="translate(580,731)"
        d="m0 0h7l6 3 2 4v11l-3 5-3 1h-12l-4-5v-11l2-5zm1 4-2 2 1 6-2 3 1 4 3 2 6-1 1-5-5-1v-2h6l-1-6-3-2z"
        fill="#2E201A" />
    <path transform="translate(645,792)" d="m0 0h7l8 6 3 8-1 5-6 4h-10l-1-4 10-2-1-2-8-3-5-4-1-3z"
        fill="#25160F" />
    <path transform="translate(571,109)"
        d="m0 0h9l10 1 1 4-14 1-1 4 9 1 3 3-13 1v9l3 1 11 1 1 2h-20l-1-1v-18l1-8z" fill="#2B1C16" />
    <path transform="translate(621,722)" d="m0 0h7l3 1-1 5-11 3 1 3 8 4 2 3-11 3-8-8v-10l3-3z"
        fill="#2A1B15" />
    <path transform="translate(713,157)"
        d="m0 0 7 1 1 4-4 2-4 10 5-5 4-5h2l1 4-7 10-4 3-5-1-2-4v-10l3-7z" fill="#2E201A" />
    <path transform="translate(466,804)" d="m0 0 9 2 3 2v5l-7 4-3 13-3 1-2-1v-18l2-7z"
        fill="#24160F" />
    <path transform="translate(606,807)" d="m0 0h6l2 4 1 15-5 1-9-3v-3l4-3 1-4-8-1v-4z"
        fill="#2C1D17" />
    <path transform="translate(478,722)" d="m0 0 8 2 4 3-1 5-4 2-3 11-3 5h-2v-21l-1-5z"
        fill="#2A1C15" />
    <path transform="translate(266,658)" d="m0 0 6 5 7 8 8 10 5 9v2l-5-2-14-15-6-10z" fill="#23150F" />
    <path transform="translate(682,144)" d="m0 0 5 1 4 4-1 5-14 9-2-1 1-8 5-8z" fill="#24150E" />
    <path transform="translate(526,732)" d="m0 0h3l1 2 1 11 4 4 5 1-3 6h-6l-5-4-2-3v-15z"
        fill="#2D1F18" />
    <path transform="translate(547,730)" d="m0 0 4 1 1 9v16h-8v-15l2-10z" fill="#281A13" />
    <path transform="translate(261,299)" d="m0 0 4 2 7 10 4 5 5 4v5l-5-1-10-9-6-12z" fill="#2B1D16" />
    <path transform="translate(350,228)" d="m0 0h2l-2 4-11 3-2 4-3 2h-12l-1-4 2-2 24-6z"
        fill="#2F211A" />
    <path transform="translate(492,111)" d="m0 0 5 1 3 22v5h-5l-1-2z" fill="#2F211A" />
    <path transform="translate(766,231)" d="m0 0h7l12 3 3 4v3l-8-1-12-5z" fill="#22140D" />
    <path transform="translate(517,731)" d="m0 0h3l1 3 1 19-1 3h-4l-1-7v-17z" fill="#372A24" />
    <path transform="translate(807,722)" d="m0 0h2l-1 5-7 9-10 7-5 2 1-3 11-9 8-9z" fill="#32241E" />
    <path transform="translate(764,219)" d="m0 0 5 1 6 4 1 3h-8l-8-2 2-4h2z" fill="#3C2F28" />
    <path transform="translate(393,776)" d="m0 0 4 2 1 5-3 3-5-1-2-5z" fill="#3A2D27" />
    <path transform="translate(630,741)" d="m0 0 4 2 1 3-6 2h-10v-3l9-2z" fill="#2C1D17" />
    <path transform="translate(801,278)" d="m0 0 4 1 1 1v8h-5l-2-3v-5z" fill="#281913" />
    <path transform="translate(476,180)" d="m0 0 13 1 9 2-1 3-21-4z" fill="#584D47" />
    <path transform="translate(354,64)" d="m0 0 2 1-2 1zm-7 2h7l1 4-5 2h-7l1-3h2z" fill="#1F110A" />
    <path transform="translate(730,209)" d="m0 0 4 2 5 6 9 5-3 1-12-7-4-5z" fill="#392B25" />
    <path transform="translate(294,93)" d="m0 0 2 2-4 2-2 3-4 1-4 4-3-1 10-8z" fill="#21120B" />
    <path transform="translate(284,815)" d="m0 0 4 2v2l4 1 4 3v2l2 1-3 1v-2h-2v-2h-2v-2l-5-1-3-4z"
        fill="#100903" />
    <path transform="translate(243,767)" d="m0 0h2l8 8 1 3h-3v-2l-3-1v-2h-2v-2l-3-1z" fill="#100903" />
    <path transform="translate(325,73)" d="m0 0h2v3l-8 5-4-1 5-4z" fill="#261811" />
    <path transform="translate(222,492)" d="m0 0 4 2v5l-4-1-1-5z" fill="#100903" />
    <path transform="translate(278,104)" d="m0 0 1 4-3 1-1 2-5 1 2-4z" fill="#32241D" />
    <path transform="translate(293,694)" d="m0 0 4 2 1 5h-4z" fill="#2F231C" />
    <path transform="translate(536,793)" d="m0 0h12v1h-12z" fill="#7D7470" />
    <path transform="translate(609,113)" d="m0 0 2 1-1 8h-1z" fill="#33251F" />
    <path transform="translate(765,213)" d="m0 0 5 1-3 2-2-1z" fill="#524641" />
    <path transform="translate(751,224)" d="m0 0 2 1z" fill="#8F8884" />
    <path transform="translate(749,223)" d="m0 0 2 1z" fill="#21120B" />
    <path transform="translate(549,793)" d="m0 0" fill="#FEFEFE" />
    <path transform="translate(292,692)" d="m0 0" fill="#21120B" />
    <path transform="translate(529,193)" d="m0 0" fill="#FEFEFE" />
</svg>